<svg xmlns="http://www.w3.org/2000/svg" viewBox="0 0 85 62" fill="currentColor" aria-hidden="true">
  <path d="m42.5 0l-0.66 2.3 0.4-0.39v48.95h-45.33l0.39-0.39-2.3 0.65 2.3 0.66-0.39-0.39h91.18l-0.39 0.39 2.3-0.66-2.3-0.65 0.39 0.39h-45.33v-48.95l0.4 0.39zm-8.45 4.53c-0.73 0-1.33 0.6-1.33 1.33v4.57c0 0.73 0.6 1.33 1.33 1.33h5.07c0.74 0 1.34-0.6 1.34-1.33v-4.57c0-0.73-0.6-1.33-1.34-1.33zm11.81 0c-0.73 0-1.33 0.6-1.33 1.33v4.57c0 0.73 0.6 1.33 1.33 1.33h5.08c0.73 0 1.33-0.6 1.33-1.33v-4.57c0-0.73-0.6-1.33-1.33-1.33zm-11.81 0.52h5.07c0.45 0 0.81 0.36 0.81 0.81v4.57c0 0.45-0.36 0.81-0.81 0.81h-5.07c-0.46 0-0.81-0.36-0.81-0.81v-4.57c0-0.45 0.35-0.81 0.81-0.81zm-15.79 9.26c-0.72 0-1.3 0.59-1.3 1.3v4.41c0 0.72 0.58 1.3 1.3 1.3h20.78c0.72 0 1.3-0.58 1.3-1.3v-4.41c0-0.71-0.58-1.3-1.3-1.3zm27.68 0c-0.72 0-1.3 0.59-1.3 1.3v4.41c0 0.72 0.58 1.3 1.3 1.3h20.78c0.71 0 1.3-0.58 1.3-1.3v-4.41c0-0.71-0.59-1.3-1.3-1.3zm-27.67 0.53h20.78c0.43 0 0.77 0.34 0.77 0.77v4.41c0 0.44-0.34 0.78-0.77 0.78h-20.78c-0.44 0-0.78-0.34-0.78-0.78v-4.41c0-0.43 0.34-0.77 0.78-0.77zm-15.56 9.06c-0.72 0-1.3 0.59-1.3 1.3v4.4c0 0.71 0.58 1.3 1.3 1.3h36.28c0.71 0 1.3-0.59 1.3-1.3v-4.4c0-0.71-0.59-1.3-1.3-1.3zm43.29 0c-0.71 0-1.29 0.59-1.29 1.3v4.4c0 0.71 0.58 1.3 1.29 1.3h36.29c0.71 0 1.29-0.59 1.29-1.3v-4.4c0-0.71-0.58-1.3-1.29-1.3zm-43.3 0.53h36.29c0.43 0 0.77 0.34 0.77 0.77v4.4c0 0.43-0.34 0.77-0.77 0.77h-36.29c-0.43 0-0.77-0.34-0.77-0.77v-4.4c0-0.43 0.34-0.77 0.77-0.77zm7.74 9.11c-0.71 0-1.29 0.58-1.29 1.29v4.37c0 0.71 0.58 1.29 1.29 1.29h28.58c0.71 0 1.29-0.58 1.29-1.29v-4.37c0-0.71-0.58-1.29-1.29-1.29zm35.52 0c-0.71 0-1.29 0.58-1.29 1.29v4.37c0 0.71 0.58 1.29 1.29 1.29h28.58c0.71 0 1.29-0.58 1.29-1.29v-4.37c0-0.71-0.58-1.29-1.29-1.29zm-35.51 0.53h28.58c0.43 0 0.76 0.33 0.76 0.76v4.37c0 0.43-0.33 0.76-0.76 0.76h-28.58c-0.43 0-0.77-0.33-0.77-0.76v-4.37c0-0.43 0.34-0.76 0.77-0.76zm15.74 8.92c-0.73 0-1.32 0.59-1.32 1.32v4.48c0 0.72 0.59 1.31 1.32 1.31h12.89c0.73 0 1.32-0.59 1.32-1.31v-4.48c0-0.73-0.59-1.32-1.32-1.32zm19.72 0c-0.72 0-1.31 0.59-1.31 1.32v4.48c0 0.72 0.59 1.31 1.31 1.31h12.9c0.72 0 1.31-0.59 1.31-1.31v-4.48c0-0.73-0.59-1.32-1.31-1.32zm-19.72 0.53h12.9c0.44 0 0.79 0.35 0.79 0.79v4.48c0 0.44-0.35 0.79-0.79 0.79h-12.9c-0.44 0-0.79-0.35-0.79-0.79v-4.48c0-0.44 0.35-0.79 0.79-0.79z"/>
</svg>
